# xmcd
#
# Track frame offsets: 
#        150
#        15012
#        31476
#        45621
#        59117
#        72709
#        87653
#        104509
#        122226
#        138577
#        156084
#        173755
#        189339
#        204076
#        220731
#        234760
#        248214
#        262658
#        278290
#        294638
#        311598
#        324195
#
# Disc length: 4617 seconds
#
# Revision: 2
# Processed by: cddbd v1.5.2PL0 Copyright (c) Steve Scherf et al.
# Submitted via: ExactAudioCopyFreeDBPlugin 1.0
#
DISCID=32120716
DTITLE=Various Artist - Hit Country 2016
DYEAR=2016
DGENRE=Country
TTITLE0=Beccy Cole - Sweet Rebecca
TTITLE1=Jason Aldean - Burnin' It Down
TTITLE2=Billy Currington - Don't It
TTITLE3=Michael Ray - Kiss You in the Morning
TTITLE4=The Road Hammers - Mud (ft Jeffrey Steele)
TTITLE5=Travis Collins - Boots On
TTITLE6=Big and Rich - Run Away With You
TTITLE7=Carrie Underwood - Something in the Water
TTITLE8=Troy Cassar-Daley - Freedom Ride (ft Paul Kelly)
TTITLE9=Kasey Chambers - Is God Real?
TTITLE10=Brad Paisley - Perfect Storm
TTITLE11=Ashley Monroe - On To Something Good
TTITLE12=Tyler Farr - A Guy Walks Into a Bar
TTITLE13=Jody Direen - Together
TTITLE14=Tim Hicks - Here Comes the Thunder
TTITLE15=Frankie Ballard - Young and Crazy
TTITLE16=Drew McAlister - Black Sky
TTITLE17=Amber Lawrence - I Will Love You
TTITLE18=Sam Hunt - Take Your Time
TTITLE19=The Viper Creek Band - My Hometown
TTITLE20=Jake Owen - Real Life
TTITLE21=Chris Stapleton - Tennessee Whiskey
EXTD=5364164
EXTT0=
EXTT1=
EXTT2=
EXTT3=
EXTT4=
EXTT5=
EXTT6=
EXTT7=
EXTT8=
EXTT9=
EXTT10=
EXTT11=
EXTT12=
EXTT13=
EXTT14=
EXTT15=
EXTT16=
EXTT17=
EXTT18=
EXTT19=
EXTT20=
EXTT21=
PLAYORDER=
